<?xml version="1.0" ?><!-- Uploaded to: SVG Repo, www.svgrepo.com, Generator: SVG Repo Mixer Tools -->
<svg fill="#000000" width="800px" height="800px" viewBox="0 0 32 32" data-name="Layer 1" id="Layer_1" xmlns="http://www.w3.org/2000/svg"><rect height="1" transform="translate(32 5) rotate(-180)" width="12" x="10" y="2"/><rect height="1" transform="translate(32 9) rotate(-180)" width="12" x="10" y="4"/><path d="M9,3V4H8A1,1,0,0,0,7,5V7H6V5A2,2,0,0,1,8,3Z"/><path d="M23,3V4h1a1,1,0,0,1,1,1V7h1V5a2,2,0,0,0-2-2Z"/><rect height="1" transform="translate(-10 23) rotate(-90)" width="19" x="-3" y="16"/><rect height="1" transform="translate(11 40) rotate(-90)" width="15" x="18" y="14"/><path d="M8,30V29H8a1,1,0,0,1-1-1V26H6v2a2,2,0,0,0,2,2Z"/><path d="M21.91,21.15c-.57-.32-.91-.72-.91-1.15a6.09,6.09,0,0,1-.21,1.59c-1,4.07-6,7.18-12.12,7.4H8v1h.72c8.86-.15,16.07-3.15,17.14-7A3.77,3.77,0,0,0,26,22,8.72,8.72,0,0,1,21.91,21.15Zm-5.78,7a10.5,10.5,0,0,0,5.54-6,8.94,8.94,0,0,0,3.15.79C24.07,25,20.91,27,16.13,28.13Z"/><path d="M11,4V5H10A1,1,0,0,1,9,4V3h1V4Z"/><path d="M11,3V2H10A1,1,0,0,0,9,3V4h1V3Z"/><path d="M21,4V5h1a1,1,0,0,0,1-1V3H22V4Z"/><path d="M21,3V2h1a1,1,0,0,1,1,1V4H22V3Z"/></svg>